P2
#HORIZONTAL SOBEL KERNEL
3 3
255
-1 0 1
-2 0 2
-1 0 1
